# xmcd CD database file
#
# Track frame offsets:
#	150
#	16834
#	33566
#
# Disc length: 714 seconds
#
# Revision: 0
# Processed by: cddbd v1.5PL3 Copyright (c) Steve Scherf et al.
# Submitted via: CDex 1.51
#
DISCID=1902c803
DTITLE=Ben Harper - Diamonds on the inside
DYEAR=2003
DGENRE=Blues
TTITLE0=Diamonds on the inside
TTITLE1=With my own two hands
TTITLE2=Strawberry fields forever
EXTD=YEAR: 2003
EXTT0=
EXTT1=
EXTT2=
PLAYORDER=
